<svg xmlns="http://www.w3.org/2000/svg" xmlns:xlink="http://www.w3.org/1999/xlink" width="1587" zoomAndPan="magnify" viewBox="0 0 1190.25 906.749968" height="1209" preserveAspectRatio="xMidYMid meet" version="1.0"><defs><clipPath id="a255dcdff0"><path d="M 310.082031 201.300781 L 879 201.300781 L 879 705.855469 L 310.082031 705.855469 Z M 310.082031 201.300781 " clip-rule="nonzero"/></clipPath></defs><g clip-path="url(#a255dcdff0)"><path fill="#00bf63" d="M 874.257812 270.527344 L 798.777344 204.171875 C 796.449219 202.15625 793.378906 201.074219 790.339844 201.300781 C 787.242188 201.5 784.371094 202.921875 782.355469 205.253906 L 508.550781 516.878906 L 411.191406 388.035156 C 409.316406 385.589844 406.5625 383.96875 403.519531 383.515625 C 400.449219 383.089844 397.351562 383.886719 394.882812 385.789062 L 314.714844 446.347656 C 309.570312 450.210938 308.546875 457.515625 312.441406 462.628906 L 492.695312 701.222656 C 494.796875 704.035156 498.066406 705.714844 501.558594 705.855469 L 501.988281 705.855469 C 505.339844 705.855469 508.523438 704.433594 510.738281 701.90625 L 875.308594 286.953125 C 879.570312 282.152344 879.085938 274.761719 874.257812 270.527344 Z M 874.257812 270.527344 " fill-opacity="1" fill-rule="nonzero"/></g></svg>