<svg xmlns="http://www.w3.org/2000/svg" xmlns:xlink="http://www.w3.org/1999/xlink" width="500" zoomAndPan="magnify" viewBox="0 0 375 374.999991" height="500" preserveAspectRatio="xMidYMid meet" version="1.0"><defs><clipPath id="a4e12e2035"><path d="M 85 82 L 297.949219 82 L 297.949219 296 L 85 296 Z M 85 82 " clip-rule="nonzero"/></clipPath></defs><path fill="#000000" d="M 258.5625 259.617188 C 257.859375 266 251.242188 270.21875 241.171875 276.632812 C 223.699219 287.765625 206.25 288.949219 198.800781 289.394531 C 175.738281 290.765625 158.765625 283.652344 149.917969 279.824219 C 134.808594 273.285156 127.257812 270.019531 126.015625 263.871094 C 123.003906 248.941406 157.214844 221.75 192.828125 221.335938 C 226.332031 220.941406 260.257812 244.09375 258.5625 259.617188 Z M 258.5625 259.617188 " fill-opacity="1" fill-rule="nonzero"/><g clip-path="url(#a4e12e2035)"><path fill="#000000" d="M 286.738281 188.898438 C 286.453125 228.660156 261.445312 265.402344 223.839844 278.910156 C 186.230469 292.414062 142.882812 280.578125 117.242188 249.398438 C 91.984375 218.695312 88.960938 173.839844 109.285156 139.789062 C 129.792969 105.429688 170.921875 86.96875 210.152344 95.050781 C 254.421875 104.164062 286.410156 143.734375 286.726562 188.898438 C 286.78125 195.738281 297.390625 195.757812 297.335938 188.898438 C 297.019531 144.648438 269.382812 104.65625 227.976562 89.117188 C 186.515625 73.570312 137.886719 86.671875 109.730469 120.871094 C 81.4375 155.253906 77.203125 204.96875 100.121094 243.367188 C 122.929688 281.589844 167.996094 301.558594 211.5625 293.277344 C 261.054688 283.863281 296.976562 239 297.335938 188.898438 C 297.390625 182.050781 286.78125 182.050781 286.726562 188.898438 Z M 286.738281 188.898438 " fill-opacity="1" fill-rule="nonzero"/></g><path fill="#000000" d="M 234.394531 163.429688 C 234.394531 164.878906 234.324219 166.320312 234.183594 167.757812 C 234.039062 169.199219 233.828125 170.628906 233.546875 172.046875 C 233.265625 173.464844 232.917969 174.867188 232.496094 176.25 C 232.078125 177.636719 231.59375 178.996094 231.039062 180.332031 C 230.488281 181.667969 229.871094 182.972656 229.191406 184.25 C 228.511719 185.523438 227.769531 186.765625 226.96875 187.96875 C 226.167969 189.167969 225.308594 190.332031 224.394531 191.449219 C 223.476562 192.566406 222.511719 193.636719 221.488281 194.660156 C 220.46875 195.683594 219.402344 196.652344 218.285156 197.570312 C 217.171875 198.488281 216.011719 199.347656 214.8125 200.152344 C 213.613281 200.957031 212.378906 201.699219 211.105469 202.378906 C 209.832031 203.0625 208.53125 203.679688 207.195312 204.234375 C 205.863281 204.785156 204.507812 205.273438 203.125 205.691406 C 201.746094 206.113281 200.347656 206.464844 198.929688 206.746094 C 197.515625 207.027344 196.089844 207.242188 194.65625 207.382812 C 193.21875 207.523438 191.777344 207.59375 190.335938 207.59375 C 188.894531 207.59375 187.453125 207.523438 186.019531 207.382812 C 184.582031 207.242188 183.15625 207.027344 181.742188 206.746094 C 180.324219 206.464844 178.925781 206.113281 177.546875 205.691406 C 176.167969 205.273438 174.808594 204.785156 173.476562 204.234375 C 172.144531 203.679688 170.839844 203.0625 169.566406 202.378906 C 168.292969 201.699219 167.058594 200.957031 165.859375 200.152344 C 164.660156 199.347656 163.5 198.488281 162.386719 197.570312 C 161.269531 196.652344 160.203125 195.683594 159.183594 194.660156 C 158.164062 193.636719 157.195312 192.566406 156.277344 191.449219 C 155.363281 190.328125 154.503906 189.167969 153.703125 187.96875 C 152.902344 186.765625 152.160156 185.523438 151.480469 184.25 C 150.800781 182.972656 150.183594 181.667969 149.632812 180.332031 C 149.078125 178.996094 148.59375 177.636719 148.175781 176.25 C 147.757812 174.867188 147.40625 173.464844 147.125 172.046875 C 146.84375 170.628906 146.632812 169.199219 146.492188 167.757812 C 146.347656 166.320312 146.277344 164.878906 146.277344 163.429688 C 146.277344 161.984375 146.347656 160.542969 146.492188 159.101562 C 146.632812 157.664062 146.84375 156.234375 147.125 154.816406 C 147.40625 153.394531 147.757812 151.996094 148.175781 150.609375 C 148.59375 149.226562 149.078125 147.867188 149.632812 146.53125 C 150.183594 145.191406 150.800781 143.886719 151.480469 142.613281 C 152.160156 141.335938 152.902344 140.097656 153.703125 138.894531 C 154.503906 137.691406 155.363281 136.53125 156.277344 135.414062 C 157.195312 134.296875 158.164062 133.222656 159.183594 132.203125 C 160.203125 131.179688 161.269531 130.207031 162.386719 129.292969 C 163.5 128.375 164.660156 127.511719 165.859375 126.710938 C 167.058594 125.90625 168.292969 125.164062 169.566406 124.480469 C 170.839844 123.800781 172.144531 123.179688 173.476562 122.628906 C 174.808594 122.074219 176.167969 121.585938 177.546875 121.167969 C 178.925781 120.75 180.324219 120.398438 181.742188 120.113281 C 183.15625 119.832031 184.582031 119.621094 186.019531 119.480469 C 187.453125 119.335938 188.894531 119.265625 190.335938 119.265625 C 191.777344 119.265625 193.21875 119.335938 194.65625 119.480469 C 196.089844 119.621094 197.515625 119.832031 198.929688 120.113281 C 200.347656 120.398438 201.746094 120.75 203.125 121.167969 C 204.507812 121.585938 205.863281 122.074219 207.195312 122.628906 C 208.53125 123.179688 209.832031 123.800781 211.105469 124.480469 C 212.378906 125.164062 213.613281 125.90625 214.8125 126.710938 C 216.011719 127.511719 217.171875 128.375 218.285156 129.292969 C 219.402344 130.207031 220.46875 131.179688 221.488281 132.203125 C 222.511719 133.222656 223.476562 134.296875 224.394531 135.414062 C 225.308594 136.53125 226.167969 137.691406 226.96875 138.894531 C 227.769531 140.097656 228.511719 141.335938 229.191406 142.613281 C 229.871094 143.886719 230.488281 145.191406 231.039062 146.53125 C 231.59375 147.867188 232.078125 149.226562 232.496094 150.609375 C 232.917969 151.996094 233.265625 153.394531 233.546875 154.816406 C 233.828125 156.234375 234.039062 157.664062 234.183594 159.101562 C 234.324219 160.542969 234.394531 161.984375 234.394531 163.429688 Z M 234.394531 163.429688 " fill-opacity="1" fill-rule="nonzero"/></svg>